<svg xmlns="http://www.w3.org/2000/svg" viewBox="0 0 32 32"><title>chat android app aplication phone</title><g id="chat_android_app_aplication_phone" data-name="chat android app aplication phone"><path d="M30.56,8.47a8,8,0,0,0-7-7,64.29,64.29,0,0,0-15.06,0,8,8,0,0,0-7,7,64.29,64.29,0,0,0,0,15.06,8,8,0,0,0,7,7,64.29,64.29,0,0,0,15.06,0,8,8,0,0,0,7-7A64.29,64.29,0,0,0,30.56,8.47Zm-2,14.83a6,6,0,0,1-5.28,5.28,63.65,63.65,0,0,1-14.6,0A6,6,0,0,1,3.42,23.3a63.65,63.65,0,0,1,0-14.6A6,6,0,0,1,8.7,3.42a63.65,63.65,0,0,1,14.6,0A6,6,0,0,1,28.58,8.7,63.65,63.65,0,0,1,28.58,23.3Z"/><path d="M16,8C9.93,8,5,11.59,5,16c0,2.43,1.45,4.66,4,6.18V25a1,1,0,0,0,1.55.83l3-2A15,15,0,0,0,16,24c6.07,0,11-3.59,11-8S22.07,8,16,8Zm0,14a13.6,13.6,0,0,1-2.44-.23,1,1,0,0,0-.74.15L11,23.13V21.59a1,1,0,0,0-.53-.88C8.26,19.55,7,17.83,7,16c0-3.31,4-6,9-6s9,2.69,9,6S21,22,16,22Z"/><circle cx="16" cy="16" r="1"/><circle cx="20" cy="16" r="1"/><circle cx="12" cy="16" r="1"/></g></svg>